<?xml version="1.0" encoding="UTF-8" standalone="no"?>
<svg
   viewBox="0 0 1148.18 341.6"
   id=""
   class="svg replaced-svg"
   version="1.1"
   sodipodi:docname="srsran.svg"
   inkscape:version="1.1.1 (3bf5ae0d25, 2021-09-20, custom)"
   xmlns:inkscape="http://www.inkscape.org/namespaces/inkscape"
   xmlns:sodipodi="http://sodipodi.sourceforge.net/DTD/sodipodi-0.dtd"
   xmlns="http://www.w3.org/2000/svg"
   xmlns:svg="http://www.w3.org/2000/svg">
  <sodipodi:namedview
     id="namedview31"
     pagecolor="#505050"
     bordercolor="#eeeeee"
     borderopacity="1"
     inkscape:pageshadow="0"
     inkscape:pageopacity="0"
     inkscape:pagecheckerboard="0"
     showgrid="false"
     inkscape:zoom="0.72760489"
     inkscape:cx="439.79914"
     inkscape:cy="182.10433"
     inkscape:window-width="1920"
     inkscape:window-height="1021"
     inkscape:window-x="0"
     inkscape:window-y="0"
     inkscape:window-maximized="1"
     inkscape:current-layer="" />
  <defs
     id="defs4">
    <style
       id="style2">.cls-1{fill:#00b2e3;}.cls-2{fill:#fff;}</style>
  </defs>
  <g
     id="Layer_2"
     data-name="Layer 2">
    <g
       id="Layer_1-2"
       data-name="Layer 1">
      <path
         class="cls-1"
         d="M208.86,164.9a38.09,38.09,0,1,1-31.07-31.11A38.12,38.12,0,0,1,208.86,164.9Z"
         id="path6"
         style="fill:#4f90d5;fill-opacity:1" />
      <path
         class="cls-1"
         d="M324.31,172.87h0a17.1,17.1,0,0,0-17,15.06,137.07,137.07,0,0,1-120,119.49,17.11,17.11,0,0,0-15.14,17h0a17.11,17.11,0,0,0,18.94,17.07A171.4,171.4,0,0,0,341.37,191.88,17.11,17.11,0,0,0,324.31,172.87Z"
         id="path8"
         style="fill:#4f90d5;fill-opacity:1" />
      <path
         class="cls-1"
         d="M34.49,163.27C38.43,94.43,94.37,38.47,163.2,34.51a136.52,136.52,0,0,1,94.64,30.56,17.23,17.23,0,0,0,23.13-1h0a17.22,17.22,0,0,0-1.46-25.54A170.63,170.63,0,0,0,163.13.19C75.47,4.27,4.18,75.64.18,163.3A170.74,170.74,0,0,0,38.52,279.53,17.22,17.22,0,0,0,64.07,281h0a17.24,17.24,0,0,0,1-23.14A136.53,136.53,0,0,1,34.49,163.27Z"
         id="path10"
         style="fill:#4f90d5;fill-opacity:1" />
      <path
         class="cls-1"
         d="M255.36,172.87h0a13.22,13.22,0,0,0-13,11,72.23,72.23,0,0,1-59.07,58.61,13.21,13.21,0,0,0-11.15,13h0a13.22,13.22,0,0,0,15.54,12.95,98.5,98.5,0,0,0,80.58-79.93A13.22,13.22,0,0,0,255.36,172.87Z"
         id="path12"
         style="fill:#4f90d5;fill-opacity:1" />
      <path
         class="cls-1"
         d="M164.17,73.06c-48.35,3.4-87.6,42.64-91.07,91a98.24,98.24,0,0,0,20.05,67.19,13.1,13.1,0,0,0,19.59,1.07h0a13.19,13.19,0,0,0,1.06-17.36A72.17,72.17,0,0,1,214.93,113.81a13.2,13.2,0,0,0,17.37-1.07h0a13.09,13.09,0,0,0-1.07-19.59A98.07,98.07,0,0,0,164.17,73.06Z"
         id="path14"
         style="fill:#4f90d5;fill-opacity:1" />
      <path
         class="cls-2"
         d="M692.72,165.24l-22.46-2.36c-7.86-1-17-5.72-17-15.43,0-8.77,7.88-17.61,25.49-17.61,6.7,0,15.66,1.73,20.39,10a12.87,12.87,0,0,0,11.71,6.75l1-.05a12.51,12.51,0,0,0,10.46-18.32c-7.27-13.94-23.67-22.61-42.8-22.61-31.74,0-53.07,17.21-53.07,42.83,0,28.09,20.37,37,37.49,39.46l22.84,2.35c10.9,1.69,16.66,7.44,16.66,16.62,0,14.23-13.32,17.21-24.5,17.21-10.32,0-22.77-4.41-27.33-14.26a13.18,13.18,0,0,0-11.85-7.76h-.6a13.12,13.12,0,0,0-10.34,6,12.46,12.46,0,0,0-1.19,11.44c8,20.34,31.34,29.44,50.92,29.44,31.64,0,52.09-16.81,52.09-42.82C730.61,182.43,717.87,168.69,692.72,165.24Z"
         id="path16" />
      <path
         class="cls-2"
         d="M469.36,165.24l-22.48-2.36c-7.85-1-17-5.72-17-15.43,0-8.77,7.89-17.61,25.5-17.61,6.69,0,15.65,1.73,20.38,10a12.87,12.87,0,0,0,11.7,6.75l1-.05a12.52,12.52,0,0,0,10.47-18.32c-7.29-14-23.69-22.61-42.81-22.61-31.75,0-53.08,17.21-53.08,42.83,0,28.09,20.37,37,37.5,39.46l22.85,2.35c10.89,1.69,16.65,7.44,16.65,16.62,0,14.23-13.32,17.21-24.49,17.21-10.34,0-22.8-4.41-27.36-14.27a13.16,13.16,0,0,0-11.83-7.75h-.61a13.1,13.1,0,0,0-10.33,6,12.43,12.43,0,0,0-1.19,11.43c8,20.34,31.33,29.45,50.91,29.45,31.65,0,52.1-16.81,52.1-42.82C507.24,182.43,494.5,168.69,469.36,165.24Z"
         id="path18" />
      <path
         class="cls-2"
         d="M619.55,148.44c0-25.62-21.33-42.83-53.09-42.83-19.12,0-35.52,8.66-42.8,22.59a12.53,12.53,0,0,0,10.47,18.34l1,.05a12.86,12.86,0,0,0,11.72-6.74c4.73-8.27,13.69-10,20.38-10,17.62,0,25.51,8.84,25.51,17.61,0,9.72-9.17,14.38-17,15.42l-22.55,2.37c-25.12,3.45-37.85,17.19-37.85,40.85v28.75a13.6,13.6,0,0,0,27.19,0V206.31c.23-8.85,6-14.4,16.57-16.05l.3,0L586.11,241a14,14,0,1,0,24.64-13.3l-22.64-40.91C602.51,183.34,619.55,173.93,619.55,148.44Z"
         id="path20" />
      <path
         class="cls-1"
         d="M783.81,230.51V182.8h25.68l.28.53,28.76,54.51a15.71,15.71,0,0,0,13.93,8.4h.26a15.72,15.72,0,0,0,13.76-23.36L841.39,177.6l1.11-.4c15.25-5.53,30.64-22,30.64-46.5,0-32.24-21.95-53.9-54.62-53.9H790.1c-26.82,0-37.76,10.38-37.76,35.84V230.51a15.74,15.74,0,0,0,31.47,0Zm0-109.68c0-10.28,5.8-16.17,15.93-16.17h16.61c15.38,0,25.32,10.22,25.32,26,0,14.85-10.88,26-25.32,26H783.81Z"
         id="path22"
         style="fill:#4f90d5;fill-opacity:1" />
      <path
         class="cls-1"
         d="M1046.79,133.07l60.39,94.51c6.79,12.35,15.55,18.58,26,18.58,4,0,7.42-1.71,10.43-5.24a19.16,19.16,0,0,0,4.52-12.8V92.34a15.54,15.54,0,1,0-31.08,0v97.85L1053.91,89.34a26.61,26.61,0,0,0-22.66-12.54,15.56,15.56,0,0,0-15.54,15.54V228.72a15.54,15.54,0,1,0,31.08,0Z"
         id="path24"
         style="fill:#4f90d5;fill-opacity:1" />
      <path
         class="cls-1"
         d="M1005.38,226l-46-131.52c-4-11.23-8.71-13.36-16.11-13.36-7.24,0-12.7,2.24-17.57,13.43L879.71,226a14.85,14.85,0,1,0,28.18,9.4l4.43-14,5.37-17.52a68.94,68.94,0,0,1,49.84,0l5.05,17.53,4.57,14.06a14.89,14.89,0,1,0,28.23-9.5Zm-79.11-50.37,16.22-51.95H944l.25.72,15.28,51.34A94.09,94.09,0,0,0,926.27,175.67Z"
         id="path26"
         style="fill:#4f90d5;fill-opacity:1" />
    </g>
  </g>
</svg>
