<?xml version="1.0" encoding="UTF-8" standalone="no"?>
<svg
   viewBox="0 0 341.492 341.60311"
   id=""
   class="svg replaced-svg"
   version="1.1"
   sodipodi:docname="srsran_logo_mod2.svg"
   width="341.492"
   height="341.60312"
   inkscape:version="1.1.1 (3bf5ae0d25, 2021-09-20, custom)"
   xmlns:inkscape="http://www.inkscape.org/namespaces/inkscape"
   xmlns:sodipodi="http://sodipodi.sourceforge.net/DTD/sodipodi-0.dtd"
   xmlns="http://www.w3.org/2000/svg"
   xmlns:svg="http://www.w3.org/2000/svg">
  <sodipodi:namedview
     id="namedview31"
     pagecolor="#ffffff"
     bordercolor="#666666"
     borderopacity="1.0"
     inkscape:pageshadow="2"
     inkscape:pageopacity="0.0"
     inkscape:pagecheckerboard="0"
     showgrid="false"
     fit-margin-top="0"
     fit-margin-left="0"
     fit-margin-right="0"
     fit-margin-bottom="0"
     inkscape:zoom="1.1618387"
     inkscape:cx="284.03254"
     inkscape:cy="170.84988"
     inkscape:window-width="1920"
     inkscape:window-height="1021"
     inkscape:window-x="0"
     inkscape:window-y="0"
     inkscape:window-maximized="1"
     inkscape:current-layer="" />
  <defs
     id="defs4">
    <style
       id="style2">.cls-1{fill:#00b2e3;}.cls-2{fill:#fff;}</style>
  </defs>
  <g
     id="Layer_2"
     data-name="Layer 2"
     transform="translate(0.01617328,0.01496274)">
    <g
       id="Layer_1-2"
       data-name="Layer 1">
      <path
         class="cls-1"
         d="m 208.86,164.9 a 38.09,38.09 0 1 1 -31.07,-31.11 38.12,38.12 0 0 1 31.07,31.11 z"
         id="path6"
         style="fill:#4f90d5;fill-opacity:1" />
      <path
         class="cls-1"
         d="m 324.31,172.87 v 0 a 17.1,17.1 0 0 0 -17,15.06 137.07,137.07 0 0 1 -120,119.49 17.11,17.11 0 0 0 -15.14,17 v 0 a 17.11,17.11 0 0 0 18.94,17.07 171.4,171.4 0 0 0 150.26,-149.61 17.11,17.11 0 0 0 -17.06,-19.01 z"
         id="path8"
         style="fill:#4f90d5;fill-opacity:1" />
      <path
         class="cls-1"
         d="M 34.49,163.27 C 38.43,94.43 94.37,38.47 163.2,34.51 a 136.52,136.52 0 0 1 94.64,30.56 17.23,17.23 0 0 0 23.13,-1 v 0 A 17.22,17.22 0 0 0 279.51,38.53 170.63,170.63 0 0 0 163.13,0.19 C 75.47,4.27 4.18,75.64 0.18,163.3 A 170.74,170.74 0 0 0 38.52,279.53 17.22,17.22 0 0 0 64.07,281 v 0 a 17.24,17.24 0 0 0 1,-23.14 136.53,136.53 0 0 1 -30.58,-94.59 z"
         id="path10"
         style="fill:#4f90d5;fill-opacity:1" />
      <path
         class="cls-1"
         d="m 255.36,172.87 v 0 a 13.22,13.22 0 0 0 -13,11 72.23,72.23 0 0 1 -59.07,58.61 13.21,13.21 0 0 0 -11.15,13 v 0 a 13.22,13.22 0 0 0 15.54,12.95 98.5,98.5 0 0 0 80.58,-79.93 13.22,13.22 0 0 0 -12.9,-15.63 z"
         id="path12"
         style="fill:#4f90d5;fill-opacity:1" />
      <path
         class="cls-1"
         d="m 164.17,73.06 c -48.35,3.4 -87.6,42.64 -91.07,91 a 98.24,98.24 0 0 0 20.05,67.19 13.1,13.1 0 0 0 19.59,1.07 v 0 a 13.19,13.19 0 0 0 1.06,-17.36 72.17,72.17 0 0 1 101.13,-101.15 13.2,13.2 0 0 0 17.37,-1.07 v 0 A 13.09,13.09 0 0 0 231.23,93.15 98.07,98.07 0 0 0 164.17,73.06 Z"
         id="path14"
         style="fill:#4f90d5;fill-opacity:1" />
    </g>
  </g>
</svg>
